<mxfile host="app.diagrams.net" agent="Mozilla/5.0 (Windows NT 10.0; Win64; x64) AppleWebKit/537.36 (KHTML, like Gecko) Chrome/136.0.0.0 Safari/537.36" version="27.1.1">
  <diagram name="Page-1" id="c2-Evs9qT5YxwrRcCF9t">
    <mxGraphModel dx="3390" dy="2297" grid="1" gridSize="10" guides="1" tooltips="1" connect="1" arrows="1" fold="1" page="1" pageScale="1" pageWidth="827" pageHeight="1169" math="0" shadow="0">
      <root>
        <mxCell id="0" />
        <mxCell id="1" parent="0" />
        <mxCell id="pJs19zwa6Q9a7WQdm39K-1" value="PERSON" style="whiteSpace=wrap;html=1;align=center;" parent="1" vertex="1">
          <mxGeometry x="80" y="80" width="160" height="40" as="geometry" />
        </mxCell>
        <mxCell id="pJs19zwa6Q9a7WQdm39K-2" value="EVENT" style="whiteSpace=wrap;html=1;align=center;" parent="1" vertex="1">
          <mxGeometry x="1120" y="80" width="160" height="40" as="geometry" />
        </mxCell>
        <mxCell id="pJs19zwa6Q9a7WQdm39K-3" value="ORGANIZER" style="whiteSpace=wrap;html=1;align=center;" parent="1" vertex="1">
          <mxGeometry x="1840" y="80" width="160" height="40" as="geometry" />
        </mxCell>
        <mxCell id="pJs19zwa6Q9a7WQdm39K-4" value="TICKET" style="whiteSpace=wrap;html=1;align=center;" parent="1" vertex="1">
          <mxGeometry x="80" y="440" width="160" height="40" as="geometry" />
        </mxCell>
        <mxCell id="pJs19zwa6Q9a7WQdm39K-5" value="PAYMENT" style="whiteSpace=wrap;html=1;align=center;" parent="1" vertex="1">
          <mxGeometry x="-400" y="240" width="160" height="40" as="geometry" />
        </mxCell>
        <mxCell id="pJs19zwa6Q9a7WQdm39K-6" value="FEEDBACK" style="whiteSpace=wrap;html=1;align=center;" parent="1" vertex="1">
          <mxGeometry x="515" y="-240" width="160" height="40" as="geometry" />
        </mxCell>
        <mxCell id="pJs19zwa6Q9a7WQdm39K-7" value="SPONSOR" style="whiteSpace=wrap;html=1;align=center;" parent="1" vertex="1">
          <mxGeometry x="1120" y="560" width="160" height="40" as="geometry" />
        </mxCell>
        <mxCell id="pJs19zwa6Q9a7WQdm39K-8" value="PERSON_NAME" style="ellipse;whiteSpace=wrap;html=1;align=center;" parent="1" vertex="1">
          <mxGeometry x="112" y="-14" width="110" height="40" as="geometry" />
        </mxCell>
        <mxCell id="pJs19zwa6Q9a7WQdm39K-10" value="EMAIL" style="ellipse;whiteSpace=wrap;html=1;align=center;" parent="1" vertex="1">
          <mxGeometry x="-100" width="100" height="40" as="geometry" />
        </mxCell>
        <mxCell id="pJs19zwa6Q9a7WQdm39K-11" value="PERSON_ID" style="ellipse;whiteSpace=wrap;html=1;align=center;fontStyle=4;" parent="1" vertex="1">
          <mxGeometry x="8" y="-18" width="100" height="40" as="geometry" />
        </mxCell>
        <mxCell id="pJs19zwa6Q9a7WQdm39K-19" value="" style="endArrow=none;html=1;rounded=0;exitX=0.25;exitY=0;exitDx=0;exitDy=0;" parent="1" source="pJs19zwa6Q9a7WQdm39K-1" target="pJs19zwa6Q9a7WQdm39K-8" edge="1">
          <mxGeometry width="50" height="50" relative="1" as="geometry">
            <mxPoint x="90" y="70" as="sourcePoint" />
            <mxPoint x="140" y="20" as="targetPoint" />
          </mxGeometry>
        </mxCell>
        <mxCell id="pJs19zwa6Q9a7WQdm39K-20" value="" style="endArrow=none;html=1;rounded=0;exitX=1;exitY=1;exitDx=0;exitDy=0;" parent="1" source="pJs19zwa6Q9a7WQdm39K-11" edge="1">
          <mxGeometry width="50" height="50" relative="1" as="geometry">
            <mxPoint x="50" y="90" as="sourcePoint" />
            <mxPoint x="93" y="78" as="targetPoint" />
          </mxGeometry>
        </mxCell>
        <mxCell id="pJs19zwa6Q9a7WQdm39K-21" value="" style="endArrow=none;html=1;rounded=0;entryX=0;entryY=0;entryDx=0;entryDy=0;" parent="1" source="pJs19zwa6Q9a7WQdm39K-10" target="pJs19zwa6Q9a7WQdm39K-1" edge="1">
          <mxGeometry width="50" height="50" relative="1" as="geometry">
            <mxPoint x="30" y="150" as="sourcePoint" />
            <mxPoint x="80" y="100" as="targetPoint" />
          </mxGeometry>
        </mxCell>
        <mxCell id="pJs19zwa6Q9a7WQdm39K-24" value="GENDER" style="ellipse;whiteSpace=wrap;html=1;align=center;" parent="1" vertex="1">
          <mxGeometry x="-95" y="62" width="100" height="40" as="geometry" />
        </mxCell>
        <mxCell id="pJs19zwa6Q9a7WQdm39K-25" value="" style="endArrow=none;html=1;rounded=0;" parent="1" source="pJs19zwa6Q9a7WQdm39K-24" target="pJs19zwa6Q9a7WQdm39K-1" edge="1">
          <mxGeometry width="50" height="50" relative="1" as="geometry">
            <mxPoint x="30" y="170" as="sourcePoint" />
            <mxPoint x="80" y="120" as="targetPoint" />
          </mxGeometry>
        </mxCell>
        <mxCell id="pJs19zwa6Q9a7WQdm39K-26" value="CONTACT" style="ellipse;shape=doubleEllipse;margin=3;whiteSpace=wrap;html=1;align=center;" parent="1" vertex="1">
          <mxGeometry x="-80" y="110" width="100" height="40" as="geometry" />
        </mxCell>
        <mxCell id="pJs19zwa6Q9a7WQdm39K-27" value="" style="endArrow=none;html=1;rounded=0;" parent="1" source="pJs19zwa6Q9a7WQdm39K-26" target="pJs19zwa6Q9a7WQdm39K-1" edge="1">
          <mxGeometry width="50" height="50" relative="1" as="geometry">
            <mxPoint x="50" y="146" as="sourcePoint" />
            <mxPoint x="116" y="130" as="targetPoint" />
          </mxGeometry>
        </mxCell>
        <mxCell id="pJs19zwa6Q9a7WQdm39K-29" value="REGISTRATION" style="shape=associativeEntity;whiteSpace=wrap;html=1;align=center;" parent="1" vertex="1">
          <mxGeometry x="510" y="80" width="170" height="40" as="geometry" />
        </mxCell>
        <mxCell id="pJs19zwa6Q9a7WQdm39K-30" value="REG_ID" style="ellipse;whiteSpace=wrap;html=1;align=center;fontStyle=4;" parent="1" vertex="1">
          <mxGeometry x="545" width="100" height="40" as="geometry" />
        </mxCell>
        <mxCell id="pJs19zwa6Q9a7WQdm39K-31" value="PERSON_ID" style="ellipse;whiteSpace=wrap;html=1;align=center;" parent="1" vertex="1">
          <mxGeometry x="430" y="160" width="100" height="40" as="geometry" />
        </mxCell>
        <mxCell id="pJs19zwa6Q9a7WQdm39K-32" value="EVENT_ID" style="ellipse;whiteSpace=wrap;html=1;align=center;" parent="1" vertex="1">
          <mxGeometry x="660" y="160" width="100" height="40" as="geometry" />
        </mxCell>
        <mxCell id="pJs19zwa6Q9a7WQdm39K-34" value="REG_DATE" style="ellipse;whiteSpace=wrap;html=1;align=center;" parent="1" vertex="1">
          <mxGeometry x="545" y="160" width="100" height="40" as="geometry" />
        </mxCell>
        <mxCell id="pJs19zwa6Q9a7WQdm39K-36" value="" style="endArrow=none;html=1;rounded=0;" parent="1" source="pJs19zwa6Q9a7WQdm39K-29" target="pJs19zwa6Q9a7WQdm39K-30" edge="1">
          <mxGeometry width="50" height="50" relative="1" as="geometry">
            <mxPoint x="470" y="90" as="sourcePoint" />
            <mxPoint x="520" y="40" as="targetPoint" />
          </mxGeometry>
        </mxCell>
        <mxCell id="pJs19zwa6Q9a7WQdm39K-37" value="" style="endArrow=none;html=1;rounded=0;" parent="1" source="pJs19zwa6Q9a7WQdm39K-29" target="pJs19zwa6Q9a7WQdm39K-31" edge="1">
          <mxGeometry width="50" height="50" relative="1" as="geometry">
            <mxPoint x="630" y="90" as="sourcePoint" />
            <mxPoint x="680" y="40" as="targetPoint" />
          </mxGeometry>
        </mxCell>
        <mxCell id="pJs19zwa6Q9a7WQdm39K-38" value="" style="endArrow=none;html=1;rounded=0;" parent="1" source="pJs19zwa6Q9a7WQdm39K-29" target="pJs19zwa6Q9a7WQdm39K-32" edge="1">
          <mxGeometry width="50" height="50" relative="1" as="geometry">
            <mxPoint x="730" y="90" as="sourcePoint" />
            <mxPoint x="780" y="40" as="targetPoint" />
          </mxGeometry>
        </mxCell>
        <mxCell id="pJs19zwa6Q9a7WQdm39K-39" value="" style="endArrow=none;html=1;rounded=0;" parent="1" source="pJs19zwa6Q9a7WQdm39K-34" target="pJs19zwa6Q9a7WQdm39K-29" edge="1">
          <mxGeometry width="50" height="50" relative="1" as="geometry">
            <mxPoint x="460" y="170" as="sourcePoint" />
            <mxPoint x="510" y="120" as="targetPoint" />
          </mxGeometry>
        </mxCell>
        <mxCell id="pJs19zwa6Q9a7WQdm39K-43" value="EVENT_DATE" style="ellipse;whiteSpace=wrap;html=1;align=center;" parent="1" vertex="1">
          <mxGeometry x="1292" y="22" width="100" height="40" as="geometry" />
        </mxCell>
        <mxCell id="pJs19zwa6Q9a7WQdm39K-44" value="EVENT_NAME" style="ellipse;whiteSpace=wrap;html=1;align=center;" parent="1" vertex="1">
          <mxGeometry x="1202" y="-13" width="100" height="40" as="geometry" />
        </mxCell>
        <mxCell id="pJs19zwa6Q9a7WQdm39K-45" value="EVENT_ID" style="ellipse;whiteSpace=wrap;html=1;align=center;fontStyle=4;" parent="1" vertex="1">
          <mxGeometry x="1092" y="-10" width="100" height="40" as="geometry" />
        </mxCell>
        <mxCell id="pJs19zwa6Q9a7WQdm39K-47" value="EVENT_TIME" style="ellipse;whiteSpace=wrap;html=1;align=center;" parent="1" vertex="1">
          <mxGeometry x="1280" y="140" width="100" height="40" as="geometry" />
        </mxCell>
        <mxCell id="pJs19zwa6Q9a7WQdm39K-48" value="VENUE" style="ellipse;whiteSpace=wrap;html=1;align=center;" parent="1" vertex="1">
          <mxGeometry x="1174" y="139" width="100" height="40" as="geometry" />
        </mxCell>
        <mxCell id="pJs19zwa6Q9a7WQdm39K-50" value="TICKER_ID" style="ellipse;whiteSpace=wrap;html=1;align=center;fontStyle=4;" parent="1" vertex="1">
          <mxGeometry x="260" y="517" width="100" height="40" as="geometry" />
        </mxCell>
        <mxCell id="pJs19zwa6Q9a7WQdm39K-51" value="PRICE" style="ellipse;whiteSpace=wrap;html=1;align=center;" parent="1" vertex="1">
          <mxGeometry x="200" y="380" width="100" height="40" as="geometry" />
        </mxCell>
        <mxCell id="pJs19zwa6Q9a7WQdm39K-52" value="PERSON_ID" style="ellipse;whiteSpace=wrap;html=1;align=center;" parent="1" vertex="1">
          <mxGeometry x="150" y="520" width="100" height="40" as="geometry" />
        </mxCell>
        <mxCell id="pJs19zwa6Q9a7WQdm39K-53" value="EVENT_ID" style="ellipse;whiteSpace=wrap;html=1;align=center;" parent="1" vertex="1">
          <mxGeometry x="30" y="520" width="100" height="40" as="geometry" />
        </mxCell>
        <mxCell id="pJs19zwa6Q9a7WQdm39K-54" value="TICKET_TYPE" style="ellipse;whiteSpace=wrap;html=1;align=center;" parent="1" vertex="1">
          <mxGeometry x="330" y="470" width="100" height="40" as="geometry" />
        </mxCell>
        <mxCell id="pJs19zwa6Q9a7WQdm39K-55" value="STATUS" style="ellipse;whiteSpace=wrap;html=1;align=center;" parent="1" vertex="1">
          <mxGeometry x="-80" y="517" width="100" height="40" as="geometry" />
        </mxCell>
        <mxCell id="pJs19zwa6Q9a7WQdm39K-56" value="" style="endArrow=none;html=1;rounded=0;entryX=0.5;entryY=0;entryDx=0;entryDy=0;exitX=1;exitY=1;exitDx=0;exitDy=0;" parent="1" source="pJs19zwa6Q9a7WQdm39K-4" target="pJs19zwa6Q9a7WQdm39K-50" edge="1">
          <mxGeometry width="50" height="50" relative="1" as="geometry">
            <mxPoint x="20" y="410" as="sourcePoint" />
            <mxPoint x="70" y="360" as="targetPoint" />
          </mxGeometry>
        </mxCell>
        <mxCell id="pJs19zwa6Q9a7WQdm39K-59" value="" style="endArrow=none;html=1;rounded=0;entryX=0;entryY=1;entryDx=0;entryDy=0;" parent="1" source="pJs19zwa6Q9a7WQdm39K-55" target="pJs19zwa6Q9a7WQdm39K-4" edge="1">
          <mxGeometry width="50" height="50" relative="1" as="geometry">
            <mxPoint x="120" y="480" as="sourcePoint" />
            <mxPoint x="170" y="430" as="targetPoint" />
          </mxGeometry>
        </mxCell>
        <mxCell id="pJs19zwa6Q9a7WQdm39K-61" value="" style="endArrow=none;html=1;rounded=0;entryX=0.5;entryY=0;entryDx=0;entryDy=0;" parent="1" source="pJs19zwa6Q9a7WQdm39K-4" target="pJs19zwa6Q9a7WQdm39K-53" edge="1">
          <mxGeometry width="50" height="50" relative="1" as="geometry">
            <mxPoint x="260" y="470" as="sourcePoint" />
            <mxPoint x="310" y="420" as="targetPoint" />
          </mxGeometry>
        </mxCell>
        <mxCell id="pJs19zwa6Q9a7WQdm39K-62" value="" style="endArrow=none;html=1;rounded=0;" parent="1" source="pJs19zwa6Q9a7WQdm39K-63" target="pJs19zwa6Q9a7WQdm39K-4" edge="1">
          <mxGeometry width="50" height="50" relative="1" as="geometry">
            <mxPoint y="420" as="sourcePoint" />
            <mxPoint x="80" y="430" as="targetPoint" />
          </mxGeometry>
        </mxCell>
        <mxCell id="pJs19zwa6Q9a7WQdm39K-63" value="SEAT_NO" style="ellipse;whiteSpace=wrap;html=1;align=center;" parent="1" vertex="1">
          <mxGeometry x="-120" y="470" width="100" height="40" as="geometry" />
        </mxCell>
        <mxCell id="pJs19zwa6Q9a7WQdm39K-64" value="PAY_DAY" style="ellipse;whiteSpace=wrap;html=1;align=center;" parent="1" vertex="1">
          <mxGeometry x="-480" y="130" width="100" height="40" as="geometry" />
        </mxCell>
        <mxCell id="pJs19zwa6Q9a7WQdm39K-65" value="AMOUNT" style="ellipse;whiteSpace=wrap;html=1;align=center;" parent="1" vertex="1">
          <mxGeometry x="-570" y="280" width="100" height="40" as="geometry" />
        </mxCell>
        <mxCell id="pJs19zwa6Q9a7WQdm39K-66" value="TICKET_ID" style="ellipse;whiteSpace=wrap;html=1;align=center;" parent="1" vertex="1">
          <mxGeometry x="-570" y="220" width="100" height="40" as="geometry" />
        </mxCell>
        <mxCell id="pJs19zwa6Q9a7WQdm39K-67" value="PAYMENT_ID" style="ellipse;whiteSpace=wrap;html=1;align=center;" parent="1" vertex="1">
          <mxGeometry x="-370" y="139" width="100" height="40" as="geometry" />
        </mxCell>
        <mxCell id="pJs19zwa6Q9a7WQdm39K-68" value="PAY_METHOD" style="ellipse;whiteSpace=wrap;html=1;align=center;" parent="1" vertex="1">
          <mxGeometry x="-560" y="170" width="100" height="40" as="geometry" />
        </mxCell>
        <mxCell id="pJs19zwa6Q9a7WQdm39K-69" value="" style="endArrow=none;html=1;rounded=0;" parent="1" source="pJs19zwa6Q9a7WQdm39K-5" target="pJs19zwa6Q9a7WQdm39K-64" edge="1">
          <mxGeometry width="50" height="50" relative="1" as="geometry">
            <mxPoint x="480" y="410" as="sourcePoint" />
            <mxPoint x="530" y="360" as="targetPoint" />
          </mxGeometry>
        </mxCell>
        <mxCell id="pJs19zwa6Q9a7WQdm39K-70" value="" style="endArrow=none;html=1;rounded=0;" parent="1" source="pJs19zwa6Q9a7WQdm39K-5" target="pJs19zwa6Q9a7WQdm39K-65" edge="1">
          <mxGeometry width="50" height="50" relative="1" as="geometry">
            <mxPoint x="600" y="410" as="sourcePoint" />
            <mxPoint x="650" y="360" as="targetPoint" />
          </mxGeometry>
        </mxCell>
        <mxCell id="pJs19zwa6Q9a7WQdm39K-71" value="" style="endArrow=none;html=1;rounded=0;" parent="1" source="pJs19zwa6Q9a7WQdm39K-5" target="pJs19zwa6Q9a7WQdm39K-66" edge="1">
          <mxGeometry width="50" height="50" relative="1" as="geometry">
            <mxPoint x="700" y="410" as="sourcePoint" />
            <mxPoint x="750" y="360" as="targetPoint" />
          </mxGeometry>
        </mxCell>
        <mxCell id="pJs19zwa6Q9a7WQdm39K-72" value="" style="endArrow=none;html=1;rounded=0;" parent="1" source="pJs19zwa6Q9a7WQdm39K-5" target="pJs19zwa6Q9a7WQdm39K-67" edge="1">
          <mxGeometry width="50" height="50" relative="1" as="geometry">
            <mxPoint x="680" y="480" as="sourcePoint" />
            <mxPoint x="730" y="430" as="targetPoint" />
          </mxGeometry>
        </mxCell>
        <mxCell id="pJs19zwa6Q9a7WQdm39K-73" value="" style="endArrow=none;html=1;rounded=0;" parent="1" source="pJs19zwa6Q9a7WQdm39K-68" target="pJs19zwa6Q9a7WQdm39K-5" edge="1">
          <mxGeometry width="50" height="50" relative="1" as="geometry">
            <mxPoint x="570" y="490" as="sourcePoint" />
            <mxPoint x="620" y="440" as="targetPoint" />
          </mxGeometry>
        </mxCell>
        <mxCell id="pJs19zwa6Q9a7WQdm39K-74" value="ORG_ID" style="ellipse;whiteSpace=wrap;html=1;align=center;fontStyle=4;" parent="1" vertex="1">
          <mxGeometry x="1870" width="100" height="40" as="geometry" />
        </mxCell>
        <mxCell id="pJs19zwa6Q9a7WQdm39K-77" value="ORG_CONTACT" style="ellipse;whiteSpace=wrap;html=1;align=center;" parent="1" vertex="1">
          <mxGeometry x="2050" y="80" width="100" height="40" as="geometry" />
        </mxCell>
        <mxCell id="pJs19zwa6Q9a7WQdm39K-78" value="ORG_NAME" style="ellipse;whiteSpace=wrap;html=1;align=center;" parent="1" vertex="1">
          <mxGeometry x="1990" width="100" height="40" as="geometry" />
        </mxCell>
        <mxCell id="pJs19zwa6Q9a7WQdm39K-80" value="" style="endArrow=none;html=1;rounded=0;" parent="1" source="pJs19zwa6Q9a7WQdm39K-2" target="pJs19zwa6Q9a7WQdm39K-45" edge="1">
          <mxGeometry width="50" height="50" relative="1" as="geometry">
            <mxPoint x="1090" y="90" as="sourcePoint" />
            <mxPoint x="1140" y="40" as="targetPoint" />
          </mxGeometry>
        </mxCell>
        <mxCell id="pJs19zwa6Q9a7WQdm39K-81" value="" style="endArrow=none;html=1;rounded=0;" parent="1" source="pJs19zwa6Q9a7WQdm39K-2" target="pJs19zwa6Q9a7WQdm39K-44" edge="1">
          <mxGeometry width="50" height="50" relative="1" as="geometry">
            <mxPoint x="1190" y="90" as="sourcePoint" />
            <mxPoint x="1240" y="40" as="targetPoint" />
          </mxGeometry>
        </mxCell>
        <mxCell id="pJs19zwa6Q9a7WQdm39K-82" value="" style="endArrow=none;html=1;rounded=0;exitX=1;exitY=0;exitDx=0;exitDy=0;" parent="1" source="pJs19zwa6Q9a7WQdm39K-2" target="pJs19zwa6Q9a7WQdm39K-43" edge="1">
          <mxGeometry width="50" height="50" relative="1" as="geometry">
            <mxPoint x="1260" y="120" as="sourcePoint" />
            <mxPoint x="1310" y="70" as="targetPoint" />
          </mxGeometry>
        </mxCell>
        <mxCell id="pJs19zwa6Q9a7WQdm39K-83" value="" style="endArrow=none;html=1;rounded=0;exitX=1;exitY=1;exitDx=0;exitDy=0;entryX=0.5;entryY=0;entryDx=0;entryDy=0;" parent="1" source="pJs19zwa6Q9a7WQdm39K-2" target="pJs19zwa6Q9a7WQdm39K-47" edge="1">
          <mxGeometry width="50" height="50" relative="1" as="geometry">
            <mxPoint x="1260" y="160" as="sourcePoint" />
            <mxPoint x="1310" y="110" as="targetPoint" />
          </mxGeometry>
        </mxCell>
        <mxCell id="pJs19zwa6Q9a7WQdm39K-84" value="" style="endArrow=none;html=1;rounded=0;" parent="1" source="pJs19zwa6Q9a7WQdm39K-48" target="pJs19zwa6Q9a7WQdm39K-2" edge="1">
          <mxGeometry width="50" height="50" relative="1" as="geometry">
            <mxPoint x="1100" y="170" as="sourcePoint" />
            <mxPoint x="1150" y="120" as="targetPoint" />
          </mxGeometry>
        </mxCell>
        <mxCell id="pJs19zwa6Q9a7WQdm39K-85" value="" style="endArrow=none;html=1;rounded=0;" parent="1" source="pJs19zwa6Q9a7WQdm39K-3" target="pJs19zwa6Q9a7WQdm39K-74" edge="1">
          <mxGeometry width="50" height="50" relative="1" as="geometry">
            <mxPoint x="1610" y="100" as="sourcePoint" />
            <mxPoint x="1660" y="50" as="targetPoint" />
          </mxGeometry>
        </mxCell>
        <mxCell id="pJs19zwa6Q9a7WQdm39K-86" value="" style="endArrow=none;html=1;rounded=0;exitX=1;exitY=0;exitDx=0;exitDy=0;entryX=0.5;entryY=1;entryDx=0;entryDy=0;" parent="1" source="pJs19zwa6Q9a7WQdm39K-3" target="pJs19zwa6Q9a7WQdm39K-78" edge="1">
          <mxGeometry width="50" height="50" relative="1" as="geometry">
            <mxPoint x="1760" y="90" as="sourcePoint" />
            <mxPoint x="1810" y="40" as="targetPoint" />
            <Array as="points">
              <mxPoint x="2010" y="70" />
            </Array>
          </mxGeometry>
        </mxCell>
        <mxCell id="pJs19zwa6Q9a7WQdm39K-87" value="" style="endArrow=none;html=1;rounded=0;" parent="1" source="pJs19zwa6Q9a7WQdm39K-3" target="pJs19zwa6Q9a7WQdm39K-77" edge="1">
          <mxGeometry width="50" height="50" relative="1" as="geometry">
            <mxPoint x="1830" y="100" as="sourcePoint" />
            <mxPoint x="1880" y="50" as="targetPoint" />
          </mxGeometry>
        </mxCell>
        <mxCell id="pJs19zwa6Q9a7WQdm39K-89" value="" style="endArrow=none;html=1;rounded=0;exitX=1;exitY=0;exitDx=0;exitDy=0;" parent="1" source="pJs19zwa6Q9a7WQdm39K-6" target="pJs19zwa6Q9a7WQdm39K-91" edge="1">
          <mxGeometry width="50" height="50" relative="1" as="geometry">
            <mxPoint x="650" y="400" as="sourcePoint" />
            <mxPoint x="700" y="350" as="targetPoint" />
          </mxGeometry>
        </mxCell>
        <mxCell id="pJs19zwa6Q9a7WQdm39K-90" value="RAITING" style="ellipse;whiteSpace=wrap;html=1;align=center;" parent="1" vertex="1">
          <mxGeometry x="400" y="-320" width="100" height="40" as="geometry" />
        </mxCell>
        <mxCell id="pJs19zwa6Q9a7WQdm39K-91" value="FEEDBACK_ID" style="ellipse;whiteSpace=wrap;html=1;align=center;fontStyle=4;" parent="1" vertex="1">
          <mxGeometry x="720" y="-280" width="100" height="40" as="geometry" />
        </mxCell>
        <mxCell id="pJs19zwa6Q9a7WQdm39K-92" value="COMMENT" style="ellipse;whiteSpace=wrap;html=1;align=center;" parent="1" vertex="1">
          <mxGeometry x="340" y="-280" width="100" height="40" as="geometry" />
        </mxCell>
        <mxCell id="pJs19zwa6Q9a7WQdm39K-94" value="EVENT_ID" style="ellipse;whiteSpace=wrap;html=1;align=center;" parent="1" vertex="1">
          <mxGeometry x="630" y="-320" width="100" height="40" as="geometry" />
        </mxCell>
        <mxCell id="pJs19zwa6Q9a7WQdm39K-95" value="PERSON_ID" style="ellipse;whiteSpace=wrap;html=1;align=center;" parent="1" vertex="1">
          <mxGeometry x="515" y="-320" width="100" height="40" as="geometry" />
        </mxCell>
        <mxCell id="pJs19zwa6Q9a7WQdm39K-98" value="" style="endArrow=none;html=1;rounded=0;exitX=0.5;exitY=0;exitDx=0;exitDy=0;entryX=0.434;entryY=0.993;entryDx=0;entryDy=0;entryPerimeter=0;" parent="1" source="pJs19zwa6Q9a7WQdm39K-6" target="pJs19zwa6Q9a7WQdm39K-95" edge="1">
          <mxGeometry width="50" height="50" relative="1" as="geometry">
            <mxPoint x="470" y="400" as="sourcePoint" />
            <mxPoint x="520" y="350" as="targetPoint" />
          </mxGeometry>
        </mxCell>
        <mxCell id="pJs19zwa6Q9a7WQdm39K-99" value="" style="endArrow=none;html=1;rounded=0;" parent="1" source="pJs19zwa6Q9a7WQdm39K-6" target="pJs19zwa6Q9a7WQdm39K-90" edge="1">
          <mxGeometry width="50" height="50" relative="1" as="geometry">
            <mxPoint x="690" y="480" as="sourcePoint" />
            <mxPoint x="740" y="430" as="targetPoint" />
          </mxGeometry>
        </mxCell>
        <mxCell id="pJs19zwa6Q9a7WQdm39K-100" value="" style="endArrow=none;html=1;rounded=0;" parent="1" source="pJs19zwa6Q9a7WQdm39K-92" target="pJs19zwa6Q9a7WQdm39K-6" edge="1">
          <mxGeometry width="50" height="50" relative="1" as="geometry">
            <mxPoint x="610" y="490" as="sourcePoint" />
            <mxPoint x="660" y="440" as="targetPoint" />
          </mxGeometry>
        </mxCell>
        <mxCell id="pJs19zwa6Q9a7WQdm39K-101" value="" style="endArrow=none;html=1;rounded=0;" parent="1" source="pJs19zwa6Q9a7WQdm39K-6" target="pJs19zwa6Q9a7WQdm39K-94" edge="1">
          <mxGeometry width="50" height="50" relative="1" as="geometry">
            <mxPoint x="680" y="410" as="sourcePoint" />
            <mxPoint x="730" y="360" as="targetPoint" />
          </mxGeometry>
        </mxCell>
        <mxCell id="pJs19zwa6Q9a7WQdm39K-102" value="" style="endArrow=none;html=1;rounded=0;exitX=1;exitY=0;exitDx=0;exitDy=0;" parent="1" source="pJs19zwa6Q9a7WQdm39K-7" target="pJs19zwa6Q9a7WQdm39K-111" edge="1">
          <mxGeometry width="50" height="50" relative="1" as="geometry">
            <mxPoint x="1150" y="410" as="sourcePoint" />
            <mxPoint x="1200" y="360" as="targetPoint" />
          </mxGeometry>
        </mxCell>
        <mxCell id="pJs19zwa6Q9a7WQdm39K-108" value="" style="endArrow=none;html=1;rounded=0;exitX=0.5;exitY=0;exitDx=0;exitDy=0;entryX=0.414;entryY=1.021;entryDx=0;entryDy=0;entryPerimeter=0;" parent="1" source="pJs19zwa6Q9a7WQdm39K-112" target="pJs19zwa6Q9a7WQdm39K-7" edge="1">
          <mxGeometry width="50" height="50" relative="1" as="geometry">
            <mxPoint x="1230" y="490" as="sourcePoint" />
            <mxPoint x="1280" y="440" as="targetPoint" />
          </mxGeometry>
        </mxCell>
        <mxCell id="pJs19zwa6Q9a7WQdm39K-110" value="SPON_NAME" style="ellipse;whiteSpace=wrap;html=1;align=center;" parent="1" vertex="1">
          <mxGeometry x="1330" y="600" width="100" height="40" as="geometry" />
        </mxCell>
        <mxCell id="pJs19zwa6Q9a7WQdm39K-111" value="SPON_ID" style="ellipse;whiteSpace=wrap;html=1;align=center;fontStyle=4;" parent="1" vertex="1">
          <mxGeometry x="1330" y="540" width="100" height="40" as="geometry" />
        </mxCell>
        <mxCell id="pJs19zwa6Q9a7WQdm39K-112" value="SPON_CONTACT" style="ellipse;whiteSpace=wrap;html=1;align=center;" parent="1" vertex="1">
          <mxGeometry x="1220" y="640" width="100" height="40" as="geometry" />
        </mxCell>
        <mxCell id="pJs19zwa6Q9a7WQdm39K-117" value="SPONSORSHIP" style="shape=associativeEntity;whiteSpace=wrap;html=1;align=center;" parent="1" vertex="1">
          <mxGeometry x="1120" y="360" width="160" height="40" as="geometry" />
        </mxCell>
        <mxCell id="pJs19zwa6Q9a7WQdm39K-118" value="S_ID" style="ellipse;whiteSpace=wrap;html=1;align=center;fontStyle=4;" parent="1" vertex="1">
          <mxGeometry x="1302" y="300" width="100" height="40" as="geometry" />
        </mxCell>
        <mxCell id="pJs19zwa6Q9a7WQdm39K-120" value="S_AMOUNT" style="ellipse;whiteSpace=wrap;html=1;align=center;" parent="1" vertex="1">
          <mxGeometry x="1192" y="291" width="100" height="40" as="geometry" />
        </mxCell>
        <mxCell id="pJs19zwa6Q9a7WQdm39K-121" value="EVENT_ID" style="ellipse;whiteSpace=wrap;html=1;align=center;" parent="1" vertex="1">
          <mxGeometry x="1340" y="410" width="100" height="40" as="geometry" />
        </mxCell>
        <mxCell id="pJs19zwa6Q9a7WQdm39K-122" value="SPON_ID" style="ellipse;whiteSpace=wrap;html=1;align=center;" parent="1" vertex="1">
          <mxGeometry x="1340" y="360" width="100" height="40" as="geometry" />
        </mxCell>
        <mxCell id="pJs19zwa6Q9a7WQdm39K-123" value="" style="endArrow=none;html=1;rounded=0;exitX=1;exitY=0;exitDx=0;exitDy=0;" parent="1" source="pJs19zwa6Q9a7WQdm39K-117" target="pJs19zwa6Q9a7WQdm39K-118" edge="1">
          <mxGeometry width="50" height="50" relative="1" as="geometry">
            <mxPoint x="1460" y="270" as="sourcePoint" />
            <mxPoint x="1510" y="220" as="targetPoint" />
          </mxGeometry>
        </mxCell>
        <mxCell id="pJs19zwa6Q9a7WQdm39K-124" value="" style="endArrow=none;html=1;rounded=0;exitX=1;exitY=0.5;exitDx=0;exitDy=0;" parent="1" source="pJs19zwa6Q9a7WQdm39K-117" target="pJs19zwa6Q9a7WQdm39K-122" edge="1">
          <mxGeometry width="50" height="50" relative="1" as="geometry">
            <mxPoint x="1370" y="370" as="sourcePoint" />
            <mxPoint x="1710" y="230" as="targetPoint" />
          </mxGeometry>
        </mxCell>
        <mxCell id="pJs19zwa6Q9a7WQdm39K-125" value="" style="endArrow=none;html=1;rounded=0;" parent="1" source="pJs19zwa6Q9a7WQdm39K-120" target="pJs19zwa6Q9a7WQdm39K-117" edge="1">
          <mxGeometry width="50" height="50" relative="1" as="geometry">
            <mxPoint x="1500" y="370" as="sourcePoint" />
            <mxPoint x="1550" y="320" as="targetPoint" />
          </mxGeometry>
        </mxCell>
        <mxCell id="pJs19zwa6Q9a7WQdm39K-126" value="" style="endArrow=none;html=1;rounded=0;" parent="1" source="pJs19zwa6Q9a7WQdm39K-117" target="pJs19zwa6Q9a7WQdm39K-121" edge="1">
          <mxGeometry width="50" height="50" relative="1" as="geometry">
            <mxPoint x="1660" y="340" as="sourcePoint" />
            <mxPoint x="1710" y="290" as="targetPoint" />
          </mxGeometry>
        </mxCell>
        <mxCell id="pJs19zwa6Q9a7WQdm39K-129" value="" style="endArrow=none;html=1;rounded=0;" parent="1" source="pJs19zwa6Q9a7WQdm39K-1" target="pJs19zwa6Q9a7WQdm39K-29" edge="1">
          <mxGeometry width="50" height="50" relative="1" as="geometry">
            <mxPoint x="290" y="130" as="sourcePoint" />
            <mxPoint x="340" y="80" as="targetPoint" />
          </mxGeometry>
        </mxCell>
        <mxCell id="pJs19zwa6Q9a7WQdm39K-141" value="1:N" style="edgeLabel;html=1;align=center;verticalAlign=middle;resizable=0;points=[];" parent="pJs19zwa6Q9a7WQdm39K-129" vertex="1" connectable="0">
          <mxGeometry x="0.0049" relative="1" as="geometry">
            <mxPoint as="offset" />
          </mxGeometry>
        </mxCell>
        <mxCell id="pJs19zwa6Q9a7WQdm39K-130" value="" style="endArrow=none;html=1;rounded=0;" parent="1" source="pJs19zwa6Q9a7WQdm39K-29" target="pJs19zwa6Q9a7WQdm39K-2" edge="1">
          <mxGeometry width="50" height="50" relative="1" as="geometry">
            <mxPoint x="840" y="140" as="sourcePoint" />
            <mxPoint x="890" y="90" as="targetPoint" />
          </mxGeometry>
        </mxCell>
        <mxCell id="pJs19zwa6Q9a7WQdm39K-142" value="N:1" style="edgeLabel;html=1;align=center;verticalAlign=middle;resizable=0;points=[];" parent="pJs19zwa6Q9a7WQdm39K-130" vertex="1" connectable="0">
          <mxGeometry x="-0.0075" y="-2" relative="1" as="geometry">
            <mxPoint as="offset" />
          </mxGeometry>
        </mxCell>
        <mxCell id="pJs19zwa6Q9a7WQdm39K-135" value="BOOKS" style="shape=rhombus;perimeter=rhombusPerimeter;whiteSpace=wrap;html=1;align=center;" parent="1" vertex="1">
          <mxGeometry x="100" y="200" width="120" height="60" as="geometry" />
        </mxCell>
        <mxCell id="pJs19zwa6Q9a7WQdm39K-143" value="" style="endArrow=none;html=1;rounded=0;" parent="1" source="pJs19zwa6Q9a7WQdm39K-135" target="pJs19zwa6Q9a7WQdm39K-1" edge="1">
          <mxGeometry width="50" height="50" relative="1" as="geometry">
            <mxPoint x="130" y="180" as="sourcePoint" />
            <mxPoint x="180" y="130" as="targetPoint" />
          </mxGeometry>
        </mxCell>
        <mxCell id="pJs19zwa6Q9a7WQdm39K-145" value="1" style="edgeLabel;html=1;align=center;verticalAlign=middle;resizable=0;points=[];" parent="pJs19zwa6Q9a7WQdm39K-143" vertex="1" connectable="0">
          <mxGeometry x="-0.0347" relative="1" as="geometry">
            <mxPoint as="offset" />
          </mxGeometry>
        </mxCell>
        <mxCell id="pJs19zwa6Q9a7WQdm39K-144" value="" style="endArrow=none;html=1;rounded=0;" parent="1" source="pJs19zwa6Q9a7WQdm39K-4" target="pJs19zwa6Q9a7WQdm39K-135" edge="1">
          <mxGeometry width="50" height="50" relative="1" as="geometry">
            <mxPoint x="110" y="310" as="sourcePoint" />
            <mxPoint x="160" y="260" as="targetPoint" />
          </mxGeometry>
        </mxCell>
        <mxCell id="pJs19zwa6Q9a7WQdm39K-147" value="N" style="edgeLabel;html=1;align=center;verticalAlign=middle;resizable=0;points=[];" parent="pJs19zwa6Q9a7WQdm39K-144" vertex="1" connectable="0">
          <mxGeometry x="0.004" y="2" relative="1" as="geometry">
            <mxPoint as="offset" />
          </mxGeometry>
        </mxCell>
        <mxCell id="pJs19zwa6Q9a7WQdm39K-148" value="HAS" style="shape=rhombus;perimeter=rhombusPerimeter;whiteSpace=wrap;html=1;align=center;" parent="1" vertex="1">
          <mxGeometry x="720" y="410" width="120" height="60" as="geometry" />
        </mxCell>
        <mxCell id="pJs19zwa6Q9a7WQdm39K-149" value="" style="endArrow=none;html=1;rounded=0;entryX=0;entryY=1;entryDx=0;entryDy=0;exitX=1;exitY=0.5;exitDx=0;exitDy=0;" parent="1" source="pJs19zwa6Q9a7WQdm39K-148" target="pJs19zwa6Q9a7WQdm39K-2" edge="1">
          <mxGeometry width="50" height="50" relative="1" as="geometry">
            <mxPoint x="910" y="250" as="sourcePoint" />
            <mxPoint x="960" y="200" as="targetPoint" />
          </mxGeometry>
        </mxCell>
        <mxCell id="pJs19zwa6Q9a7WQdm39K-151" value="1" style="edgeLabel;html=1;align=center;verticalAlign=middle;resizable=0;points=[];" parent="pJs19zwa6Q9a7WQdm39K-149" vertex="1" connectable="0">
          <mxGeometry x="0.0521" y="-5" relative="1" as="geometry">
            <mxPoint x="-1" as="offset" />
          </mxGeometry>
        </mxCell>
        <mxCell id="pJs19zwa6Q9a7WQdm39K-150" value="" style="endArrow=none;html=1;rounded=0;entryX=0;entryY=0.5;entryDx=0;entryDy=0;exitX=1;exitY=0;exitDx=0;exitDy=0;" parent="1" source="pJs19zwa6Q9a7WQdm39K-4" target="pJs19zwa6Q9a7WQdm39K-148" edge="1">
          <mxGeometry width="50" height="50" relative="1" as="geometry">
            <mxPoint x="250" y="450" as="sourcePoint" />
            <mxPoint x="650" y="290" as="targetPoint" />
          </mxGeometry>
        </mxCell>
        <mxCell id="pJs19zwa6Q9a7WQdm39K-152" value="N" style="edgeLabel;html=1;align=center;verticalAlign=middle;resizable=0;points=[];" parent="pJs19zwa6Q9a7WQdm39K-150" vertex="1" connectable="0">
          <mxGeometry x="0.0271" y="2" relative="1" as="geometry">
            <mxPoint as="offset" />
          </mxGeometry>
        </mxCell>
        <mxCell id="pJs19zwa6Q9a7WQdm39K-153" value="" style="endArrow=none;html=1;rounded=0;exitX=0;exitY=0.5;exitDx=0;exitDy=0;entryX=0.381;entryY=0.944;entryDx=0;entryDy=0;entryPerimeter=0;" parent="1" source="pJs19zwa6Q9a7WQdm39K-155" target="pJs19zwa6Q9a7WQdm39K-5" edge="1">
          <mxGeometry width="50" height="50" relative="1" as="geometry">
            <mxPoint x="-438" y="385" as="sourcePoint" />
            <mxPoint x="-388" y="335" as="targetPoint" />
          </mxGeometry>
        </mxCell>
        <mxCell id="pJs19zwa6Q9a7WQdm39K-158" value="N" style="edgeLabel;html=1;align=center;verticalAlign=middle;resizable=0;points=[];" parent="pJs19zwa6Q9a7WQdm39K-153" vertex="1" connectable="0">
          <mxGeometry x="-0.0127" y="-2" relative="1" as="geometry">
            <mxPoint as="offset" />
          </mxGeometry>
        </mxCell>
        <mxCell id="pJs19zwa6Q9a7WQdm39K-154" value="" style="endArrow=none;html=1;rounded=0;exitX=0;exitY=0;exitDx=0;exitDy=0;entryX=1;entryY=0.5;entryDx=0;entryDy=0;" parent="1" source="pJs19zwa6Q9a7WQdm39K-4" target="pJs19zwa6Q9a7WQdm39K-155" edge="1">
          <mxGeometry width="50" height="50" relative="1" as="geometry">
            <mxPoint x="-550" y="550" as="sourcePoint" />
            <mxPoint x="-500" y="500" as="targetPoint" />
          </mxGeometry>
        </mxCell>
        <mxCell id="pJs19zwa6Q9a7WQdm39K-156" value="1" style="edgeLabel;html=1;align=center;verticalAlign=middle;resizable=0;points=[];" parent="pJs19zwa6Q9a7WQdm39K-154" vertex="1" connectable="0">
          <mxGeometry x="0.0185" y="-3" relative="1" as="geometry">
            <mxPoint as="offset" />
          </mxGeometry>
        </mxCell>
        <mxCell id="pJs19zwa6Q9a7WQdm39K-155" value="HAS" style="shape=rhombus;perimeter=rhombusPerimeter;whiteSpace=wrap;html=1;align=center;" parent="1" vertex="1">
          <mxGeometry x="-340" y="410" width="120" height="60" as="geometry" />
        </mxCell>
        <mxCell id="pJs19zwa6Q9a7WQdm39K-159" value="ORGANIZES" style="shape=rhombus;perimeter=rhombusPerimeter;whiteSpace=wrap;html=1;align=center;" parent="1" vertex="1">
          <mxGeometry x="1480" y="70" width="120" height="60" as="geometry" />
        </mxCell>
        <mxCell id="pJs19zwa6Q9a7WQdm39K-160" value="" style="endArrow=none;html=1;rounded=0;exitX=0;exitY=0.5;exitDx=0;exitDy=0;entryX=1;entryY=0.5;entryDx=0;entryDy=0;" parent="1" source="pJs19zwa6Q9a7WQdm39K-3" target="pJs19zwa6Q9a7WQdm39K-159" edge="1">
          <mxGeometry width="50" height="50" relative="1" as="geometry">
            <mxPoint x="1673" y="170" as="sourcePoint" />
            <mxPoint x="1570" y="80" as="targetPoint" />
          </mxGeometry>
        </mxCell>
        <mxCell id="pJs19zwa6Q9a7WQdm39K-162" value="1" style="edgeLabel;html=1;align=center;verticalAlign=middle;resizable=0;points=[];" parent="pJs19zwa6Q9a7WQdm39K-160" vertex="1" connectable="0">
          <mxGeometry x="-0.0075" y="1" relative="1" as="geometry">
            <mxPoint as="offset" />
          </mxGeometry>
        </mxCell>
        <mxCell id="pJs19zwa6Q9a7WQdm39K-161" value="" style="endArrow=none;html=1;rounded=0;exitX=1;exitY=0.5;exitDx=0;exitDy=0;entryX=0;entryY=0.5;entryDx=0;entryDy=0;" parent="1" source="pJs19zwa6Q9a7WQdm39K-2" target="pJs19zwa6Q9a7WQdm39K-159" edge="1">
          <mxGeometry width="50" height="50" relative="1" as="geometry">
            <mxPoint x="1602" y="211" as="sourcePoint" />
            <mxPoint x="1560" y="170" as="targetPoint" />
          </mxGeometry>
        </mxCell>
        <mxCell id="pJs19zwa6Q9a7WQdm39K-163" value="N" style="edgeLabel;html=1;align=center;verticalAlign=middle;resizable=0;points=[];" parent="pJs19zwa6Q9a7WQdm39K-161" vertex="1" connectable="0">
          <mxGeometry x="0.1169" y="-4" relative="1" as="geometry">
            <mxPoint as="offset" />
          </mxGeometry>
        </mxCell>
        <mxCell id="pJs19zwa6Q9a7WQdm39K-164" value="GIVES" style="shape=rhombus;perimeter=rhombusPerimeter;whiteSpace=wrap;html=1;align=center;" parent="1" vertex="1">
          <mxGeometry x="280" y="-140" width="120" height="60" as="geometry" />
        </mxCell>
        <mxCell id="pJs19zwa6Q9a7WQdm39K-166" value="" style="endArrow=none;html=1;rounded=0;exitX=1;exitY=0;exitDx=0;exitDy=0;entryX=0;entryY=0.5;entryDx=0;entryDy=0;" parent="1" source="pJs19zwa6Q9a7WQdm39K-1" target="pJs19zwa6Q9a7WQdm39K-164" edge="1">
          <mxGeometry width="50" height="50" relative="1" as="geometry">
            <mxPoint x="190" y="-130" as="sourcePoint" />
            <mxPoint x="240" y="-180" as="targetPoint" />
          </mxGeometry>
        </mxCell>
        <mxCell id="pJs19zwa6Q9a7WQdm39K-168" value="1" style="edgeLabel;html=1;align=center;verticalAlign=middle;resizable=0;points=[];" parent="pJs19zwa6Q9a7WQdm39K-166" vertex="1" connectable="0">
          <mxGeometry x="0.0736" y="-5" relative="1" as="geometry">
            <mxPoint y="-1" as="offset" />
          </mxGeometry>
        </mxCell>
        <mxCell id="pJs19zwa6Q9a7WQdm39K-167" value="" style="endArrow=none;html=1;rounded=0;exitX=1;exitY=0.5;exitDx=0;exitDy=0;entryX=0;entryY=1;entryDx=0;entryDy=0;" parent="1" source="pJs19zwa6Q9a7WQdm39K-164" target="pJs19zwa6Q9a7WQdm39K-6" edge="1">
          <mxGeometry width="50" height="50" relative="1" as="geometry">
            <mxPoint x="420" y="-140" as="sourcePoint" />
            <mxPoint x="470" y="-190" as="targetPoint" />
          </mxGeometry>
        </mxCell>
        <mxCell id="pJs19zwa6Q9a7WQdm39K-169" value="1" style="edgeLabel;html=1;align=center;verticalAlign=middle;resizable=0;points=[];" parent="pJs19zwa6Q9a7WQdm39K-167" vertex="1" connectable="0">
          <mxGeometry x="0.1422" y="2" relative="1" as="geometry">
            <mxPoint x="1" as="offset" />
          </mxGeometry>
        </mxCell>
        <mxCell id="pJs19zwa6Q9a7WQdm39K-171" value="" style="endArrow=none;html=1;rounded=0;exitX=0;exitY=0.5;exitDx=0;exitDy=0;entryX=1;entryY=1;entryDx=0;entryDy=0;" parent="1" source="pJs19zwa6Q9a7WQdm39K-173" target="pJs19zwa6Q9a7WQdm39K-6" edge="1">
          <mxGeometry width="50" height="50" relative="1" as="geometry">
            <mxPoint x="1170" y="-260" as="sourcePoint" />
            <mxPoint x="1220" y="-310" as="targetPoint" />
          </mxGeometry>
        </mxCell>
        <mxCell id="pJs19zwa6Q9a7WQdm39K-175" value="N" style="edgeLabel;html=1;align=center;verticalAlign=middle;resizable=0;points=[];" parent="pJs19zwa6Q9a7WQdm39K-171" vertex="1" connectable="0">
          <mxGeometry x="-0.0054" y="5" relative="1" as="geometry">
            <mxPoint x="-1" as="offset" />
          </mxGeometry>
        </mxCell>
        <mxCell id="pJs19zwa6Q9a7WQdm39K-172" value="" style="endArrow=none;html=1;rounded=0;exitX=1;exitY=0.5;exitDx=0;exitDy=0;entryX=0;entryY=0;entryDx=0;entryDy=0;" parent="1" source="pJs19zwa6Q9a7WQdm39K-173" target="pJs19zwa6Q9a7WQdm39K-2" edge="1">
          <mxGeometry width="50" height="50" relative="1" as="geometry">
            <mxPoint x="1090" y="-90" as="sourcePoint" />
            <mxPoint x="1140" y="-140" as="targetPoint" />
          </mxGeometry>
        </mxCell>
        <mxCell id="pJs19zwa6Q9a7WQdm39K-174" value="1" style="edgeLabel;html=1;align=center;verticalAlign=middle;resizable=0;points=[];" parent="pJs19zwa6Q9a7WQdm39K-172" vertex="1" connectable="0">
          <mxGeometry x="-0.0312" y="-2" relative="1" as="geometry">
            <mxPoint as="offset" />
          </mxGeometry>
        </mxCell>
        <mxCell id="pJs19zwa6Q9a7WQdm39K-173" value="RECEIVES" style="shape=rhombus;perimeter=rhombusPerimeter;whiteSpace=wrap;html=1;align=center;" parent="1" vertex="1">
          <mxGeometry x="830" y="-140" width="120" height="60" as="geometry" />
        </mxCell>
        <mxCell id="pJs19zwa6Q9a7WQdm39K-180" value="" style="endArrow=none;html=1;rounded=0;entryX=0.25;entryY=1;entryDx=0;entryDy=0;exitX=0.25;exitY=0;exitDx=0;exitDy=0;" parent="1" source="pJs19zwa6Q9a7WQdm39K-117" target="pJs19zwa6Q9a7WQdm39K-2" edge="1">
          <mxGeometry width="50" height="50" relative="1" as="geometry">
            <mxPoint x="1140" y="260" as="sourcePoint" />
            <mxPoint x="1190" y="210" as="targetPoint" />
          </mxGeometry>
        </mxCell>
        <mxCell id="pJs19zwa6Q9a7WQdm39K-189" value="1:N" style="edgeLabel;html=1;align=center;verticalAlign=middle;resizable=0;points=[];" parent="pJs19zwa6Q9a7WQdm39K-180" vertex="1" connectable="0">
          <mxGeometry x="0.0421" relative="1" as="geometry">
            <mxPoint as="offset" />
          </mxGeometry>
        </mxCell>
        <mxCell id="pJs19zwa6Q9a7WQdm39K-181" value="" style="endArrow=none;html=1;rounded=0;entryX=0.25;entryY=1;entryDx=0;entryDy=0;exitX=0.25;exitY=0;exitDx=0;exitDy=0;" parent="1" source="pJs19zwa6Q9a7WQdm39K-7" target="pJs19zwa6Q9a7WQdm39K-117" edge="1">
          <mxGeometry width="50" height="50" relative="1" as="geometry">
            <mxPoint x="1160" y="550" as="sourcePoint" />
            <mxPoint x="1200" y="420" as="targetPoint" />
          </mxGeometry>
        </mxCell>
        <mxCell id="pJs19zwa6Q9a7WQdm39K-193" value="N:1" style="edgeLabel;html=1;align=center;verticalAlign=middle;resizable=0;points=[];" parent="pJs19zwa6Q9a7WQdm39K-181" vertex="1" connectable="0">
          <mxGeometry x="0.0105" y="3" relative="1" as="geometry">
            <mxPoint as="offset" />
          </mxGeometry>
        </mxCell>
        <mxCell id="pJs19zwa6Q9a7WQdm39K-182" value="" style="endArrow=none;html=1;rounded=0;exitX=1;exitY=1;exitDx=0;exitDy=0;entryX=0;entryY=0.5;entryDx=0;entryDy=0;" parent="1" source="pJs19zwa6Q9a7WQdm39K-7" target="pJs19zwa6Q9a7WQdm39K-110" edge="1">
          <mxGeometry width="50" height="50" relative="1" as="geometry">
            <mxPoint x="1260" y="670" as="sourcePoint" />
            <mxPoint x="1310" y="620" as="targetPoint" />
          </mxGeometry>
        </mxCell>
        <mxCell id="pJs19zwa6Q9a7WQdm39K-183" value="" style="endArrow=none;html=1;rounded=0;exitX=0.5;exitY=0;exitDx=0;exitDy=0;entryX=0.75;entryY=1;entryDx=0;entryDy=0;" parent="1" source="pJs19zwa6Q9a7WQdm39K-52" target="pJs19zwa6Q9a7WQdm39K-4" edge="1">
          <mxGeometry width="50" height="50" relative="1" as="geometry">
            <mxPoint x="250" y="390" as="sourcePoint" />
            <mxPoint x="300" y="340" as="targetPoint" />
          </mxGeometry>
        </mxCell>
        <mxCell id="pJs19zwa6Q9a7WQdm39K-185" value="" style="endArrow=none;html=1;rounded=0;entryX=0;entryY=0.5;entryDx=0;entryDy=0;exitX=1;exitY=0.75;exitDx=0;exitDy=0;" parent="1" source="pJs19zwa6Q9a7WQdm39K-4" target="pJs19zwa6Q9a7WQdm39K-54" edge="1">
          <mxGeometry width="50" height="50" relative="1" as="geometry">
            <mxPoint x="250" y="470" as="sourcePoint" />
            <mxPoint x="320" y="300" as="targetPoint" />
            <Array as="points">
              <mxPoint x="280" y="480" />
            </Array>
          </mxGeometry>
        </mxCell>
        <mxCell id="pJs19zwa6Q9a7WQdm39K-186" value="" style="endArrow=none;html=1;rounded=0;exitX=0.877;exitY=0;exitDx=0;exitDy=0;exitPerimeter=0;" parent="1" source="pJs19zwa6Q9a7WQdm39K-4" target="pJs19zwa6Q9a7WQdm39K-51" edge="1">
          <mxGeometry width="50" height="50" relative="1" as="geometry">
            <mxPoint x="280" y="430" as="sourcePoint" />
            <mxPoint x="320" y="390" as="targetPoint" />
          </mxGeometry>
        </mxCell>
        <mxCell id="pJs19zwa6Q9a7WQdm39K-194" value="MAKES" style="shape=rhombus;perimeter=rhombusPerimeter;whiteSpace=wrap;html=1;align=center;" parent="1" vertex="1">
          <mxGeometry x="-140" y="210" width="120" height="60" as="geometry" />
        </mxCell>
        <mxCell id="pJs19zwa6Q9a7WQdm39K-196" value="" style="endArrow=none;html=1;rounded=0;exitX=1;exitY=0;exitDx=0;exitDy=0;entryX=0;entryY=0.5;entryDx=0;entryDy=0;" parent="1" source="pJs19zwa6Q9a7WQdm39K-5" target="pJs19zwa6Q9a7WQdm39K-194" edge="1">
          <mxGeometry width="50" height="50" relative="1" as="geometry">
            <mxPoint x="-190" y="320" as="sourcePoint" />
            <mxPoint x="-140" y="270" as="targetPoint" />
          </mxGeometry>
        </mxCell>
        <mxCell id="pJs19zwa6Q9a7WQdm39K-199" value="N" style="edgeLabel;html=1;align=center;verticalAlign=middle;resizable=0;points=[];" parent="pJs19zwa6Q9a7WQdm39K-196" vertex="1" connectable="0">
          <mxGeometry x="-0.0467" y="3" relative="1" as="geometry">
            <mxPoint as="offset" />
          </mxGeometry>
        </mxCell>
        <mxCell id="pJs19zwa6Q9a7WQdm39K-197" value="" style="endArrow=none;html=1;rounded=0;entryX=0.16;entryY=1.014;entryDx=0;entryDy=0;entryPerimeter=0;exitX=1;exitY=0.5;exitDx=0;exitDy=0;" parent="1" source="pJs19zwa6Q9a7WQdm39K-194" target="pJs19zwa6Q9a7WQdm39K-1" edge="1">
          <mxGeometry width="50" height="50" relative="1" as="geometry">
            <mxPoint x="-40" y="230" as="sourcePoint" />
            <mxPoint x="10" y="180" as="targetPoint" />
          </mxGeometry>
        </mxCell>
        <mxCell id="pJs19zwa6Q9a7WQdm39K-198" value="1" style="edgeLabel;html=1;align=center;verticalAlign=middle;resizable=0;points=[];" parent="pJs19zwa6Q9a7WQdm39K-197" vertex="1" connectable="0">
          <mxGeometry x="-0.0427" relative="1" as="geometry">
            <mxPoint as="offset" />
          </mxGeometry>
        </mxCell>
      </root>
    </mxGraphModel>
  </diagram>
</mxfile>
